<mxfile host="app.diagrams.net" modified="2021-04-07T12:59:53.241Z" agent="5.0 (Macintosh; Intel Mac OS X 10_15_5) AppleWebKit/537.36 (KHTML, like Gecko) Chrome/89.0.4389.82 Safari/537.36" etag="MOlfk0pw8YHn_83a4oAq" version="14.5.4" type="github">
  <diagram id="ceYldtPN9bjXgeBUUZeB" name="Page-1">
    <mxGraphModel dx="315" dy="208" grid="1" gridSize="10" guides="1" tooltips="1" connect="1" arrows="1" fold="1" page="1" pageScale="1" pageWidth="1169" pageHeight="827" math="0" shadow="0">
      <root>
        <mxCell id="0" />
        <mxCell id="1" parent="0" />
        <mxCell id="nWADkO_1Ig-Z6n_BeCec-35" value="" style="curved=1;endArrow=none;html=1;endFill=0;strokeWidth=2;" edge="1" parent="1">
          <mxGeometry width="50" height="50" relative="1" as="geometry">
            <mxPoint x="510" y="310" as="sourcePoint" />
            <mxPoint x="660" y="270" as="targetPoint" />
            <Array as="points">
              <mxPoint x="530" y="310" />
              <mxPoint x="540" y="300" />
              <mxPoint x="550" y="270" />
              <mxPoint x="560" y="270" />
              <mxPoint x="570" y="290" />
              <mxPoint x="590" y="290" />
              <mxPoint x="590" y="270" />
              <mxPoint x="600" y="260" />
              <mxPoint x="620" y="230" />
              <mxPoint x="630" y="270" />
            </Array>
          </mxGeometry>
        </mxCell>
        <mxCell id="nWADkO_1Ig-Z6n_BeCec-44" value="LOCAL MAX" style="text;html=1;strokeColor=none;fillColor=none;align=center;verticalAlign=middle;whiteSpace=wrap;rounded=0;fontSize=10;" vertex="1" parent="1">
          <mxGeometry x="496" y="253" width="96" height="20" as="geometry" />
        </mxCell>
        <mxCell id="nWADkO_1Ig-Z6n_BeCec-45" value="GLOBAL MAX" style="text;html=1;strokeColor=none;fillColor=none;align=center;verticalAlign=middle;whiteSpace=wrap;rounded=0;fontSize=10;" vertex="1" parent="1">
          <mxGeometry x="578" y="220" width="85" height="20" as="geometry" />
        </mxCell>
        <mxCell id="nWADkO_1Ig-Z6n_BeCec-46" value="LOCAL MIN" style="text;html=1;strokeColor=none;fillColor=none;align=center;verticalAlign=middle;whiteSpace=wrap;rounded=0;fontSize=10;" vertex="1" parent="1">
          <mxGeometry x="550" y="285" width="91" height="20" as="geometry" />
        </mxCell>
      </root>
    </mxGraphModel>
  </diagram>
</mxfile>
